<svg xmlns="http://www.w3.org/2000/svg" viewBox="0 0 965.31 256"><defs><style>.cls-1{fill:none;}.cls-2{fill:#d52027;}.cls-2,.cls-3,.cls-4,.cls-5,.cls-6{fill-rule:evenodd;}.cls-3{fill:#b32f32;}.cls-4{fill:#c53034;}.cls-5{fill:#d73135;}</style></defs><g id="Layer_2" data-name="Layer 2"><g id="Layer_1-2" data-name="Layer 1"><rect class="cls-1" width="965.31" height="256"/><path class="cls-2" d="M683.39,163.22h-14c-.37-.75-.78-1.51-1.13-2.31q-6.23-14.73-12.47-29.44c-.43-1-.9-2-1.28-2.87-2.7-.41-53-.51-56.86-.14-1,.78-1.27,2-1.77,3.13-4.1,9.6-8.17,19.2-12.28,28.79-.42.92-.85,1.8-1.25,2.64A80.86,80.86,0,0,1,568,163c0-.22-.14-.47,0-.63Q596.59,95.66,625.29,29a4,4,0,0,1,.73-.9c.27.42.53.75.72,1.12q28.41,66.63,56.77,133.28C683.58,162.64,683.46,162.88,683.39,163.22ZM625.86,60.86a6.35,6.35,0,0,0-.79,1q-11.24,27-22.42,54c-.08.16,0,.41.05.75.52,0,1,.14,1.61.14q21.63,0,43.23,0c.51,0,1.12.18,1.41-.47C648.26,113.74,627.66,64.14,625.86,60.86Z"/><path class="cls-2" d="M375.77,163.34H361.42a9.44,9.44,0,0,1,.32-1.59c19.13-44.55,38.28-89.09,57.63-134,.39.62.63.87.76,1.16q28.44,66.61,56.81,133.24c.12.27,0,.64,0,1.19-4.67.07-9.28.07-14.12,0-5.05-11.52-9.76-23.12-14.77-34.71a14.14,14.14,0,0,0-2-.31H392.43c-.45,0-.88.08-1.56.15-1.48,2.76-2.54,5.77-3.84,8.7s-2.47,5.72-3.66,8.57-2.52,5.93-3.8,8.89S377.13,160.26,375.77,163.34Zm66.59-46.79a2,2,0,0,0,.12-.39,2,2,0,0,0-.07-.65c-.25-.73-.53-1.45-.83-2.17Q430.63,87.27,419.72,61.2a.53.53,0,0,0-.24-.23c-.07,0-.15,0-.25,0-1.13,1.94-21.13,49.55-22.79,54.22a5.29,5.29,0,0,0-.2,1.31,3.5,3.5,0,0,0,1,.29q22.14,0,44.28,0A3,3,0,0,0,442.36,116.55Z"/><path class="cls-2" d="M907.73,28.35c.17.09.45.16.54.31q28.47,66.75,57,133.52a3.68,3.68,0,0,1,.08,1.06H951.12c-.43-.86-.88-1.72-1.25-2.62-4-9.52-8-19-12.08-28.53-.51-1.21-1-2.41-1.54-3.49-2.74-.41-52.63-.51-56.85-.12-1,.61-1.17,1.78-1.62,2.77-4,9.38-8,18.78-12,28.16-.52,1.24-1,2.44-1.55,3.6a73.84,73.84,0,0,1-14.26,0c0-.21-.17-.47-.09-.64q28.65-66.87,57.38-133.7C907.3,28.52,907.56,28.45,907.73,28.35Zm-.51,32.39C899.58,79.3,892,97.63,884.47,116c-.09.17.07.42.15.75h46.13a2.63,2.63,0,0,0,.1-.74q-11.39-27.3-22.79-54.62C908,61.2,907.71,61.1,907.22,60.74Z"/><path class="cls-2" d="M350.23,44.39c-2.64,3-5.07,6-7.93,8.94-.65-.56-1.25-1-1.84-1.51a34.68,34.68,0,0,0-27.19-8.36c-8.12.82-14.56,4.58-18.55,11.9-3.3,6-4.28,15.68,3.91,23.08a32.27,32.27,0,0,0,9,5.64c4.91,2.08,9.85,4,14.8,6a142.63,142.63,0,0,1,14.89,6.63,44.8,44.8,0,0,1,9.23,6.49,31.43,31.43,0,0,1,10.33,23c.55,16.12-9.24,29.16-23,35.1A46.71,46.71,0,0,1,313.1,165,59.09,59.09,0,0,1,293,160.75a49.67,49.67,0,0,1-20-15c1.13-1.85,4.38-4.74,9.32-8.32.62.68,1.33,1.35,2,2.06A41.71,41.71,0,0,0,305,152.29a36.67,36.67,0,0,0,19.11.36c9.65-2.62,16.22-8.65,18.58-18.54s-.35-17.73-8.93-23.88A49.88,49.88,0,0,0,323,104.8c-5.79-2.32-11.63-4.43-17.35-6.81-3.58-1.48-7.08-3.19-10.51-5A32.16,32.16,0,0,1,286,85.43C276,74.05,275.9,55.29,287.34,43.49a38.68,38.68,0,0,1,21.8-11.26,52.68,52.68,0,0,1,21.15.87c7.41,1.74,13.74,5.59,19.5,10.45A4.4,4.4,0,0,1,350.23,44.39Z"/><path class="cls-2" d="M500,45.2a14.09,14.09,0,0,0-.19,1.63c-.33,9.9-.13,41.1.27,44,1.07.67,2.34.37,3.54.37q20,0,40,0,6,0,12,0c.88,0,1.74.06,2.79.11a88.28,88.28,0,0,1,.12,11.15c-4.11.37-8,.15-11.81.19s-7.79,0-11.67,0H511.66c-3.86,0-7.7,0-11.75,0-.3,5.3-.09,10.29-.15,15.24s0,10,0,15v29.88c-2.42.64-9.37.74-13,.24a1.73,1.73,0,0,1-.24-.23.75.75,0,0,1-.1-.32q0-63.46-.07-126.95a15.38,15.38,0,0,1,.12-1.58c.91-.82,1.95-.52,2.93-.52,9.32,0,18.64,0,28,0h45c1.2,0,2.39.08,3.52.1a35.15,35.15,0,0,1,0,11.12,9.55,9.55,0,0,1-3.55.23l-58.62,0A10,10,0,0,0,500,45.2Z"/><path class="cls-2" d="M814.39,163.26c-4.44.14-8.62.06-13,.08-.1-.92-.22-1.55-.22-2.19,0-1.89,0-3.78,0-5.67V49.15a11.83,11.83,0,0,0-.28-4,72.44,72.44,0,0,0-8.69-.21c-2.78,0-5.53,0-8.33,0H766.74c-.56-3.83-.17-7.43-.3-10.85,1.09-.93,2.15-.63,3.1-.63q12,0,24,0h55.24a42.29,42.29,0,0,1,.25,11.31c-.82.06-1.65.2-2.52.2H818.87c-1.2,0-2.39,0-3.72.08a14.68,14.68,0,0,0-.39,2c0,1,0,2,0,3v109A11.91,11.91,0,0,1,814.39,163.26Z"/><path class="cls-2" d="M706.38,151.81h57.86a39.61,39.61,0,0,1,.19,11.1c-.07.08-.14.19-.19.24a.66.66,0,0,1-.34.1l-68.62.09a15.81,15.81,0,0,1-1.67-.08,2.15,2.15,0,0,1-.72-.35,14,14,0,0,1-.19-1.82c-.43-19.11-.21-123.75.27-127.2,2.18-.57,8.34-.68,13-.24a11.51,11.51,0,0,1,.32,1.82c0,.88,0,1.77,0,2.67V147.39C706.3,148.71,706.33,150,706.38,151.81Z"/><path class="cls-3" d="M43.11,144.75c-.53,0-1.08.12-1.65.13l-39.15.52c-.72,0-1.4,0-2.31-.05A5.13,5.13,0,0,1,2.61,144q120.82-43,241.66-85.87s.15.1.22.15c-.66,2.12-59.66,126.52-61.26,129.17a.88.88,0,0,1-.28,0,.32.32,0,0,1-.22-.17c-1.77-3.68-3.52-7.37-5.28-11.07a1.79,1.79,0,0,0,1.68-1.23q2.84-6.21,5.72-12.41c1.9-4,3.77-7.91,5.66-11.85s3.68-7.75,5.53-11.61l5-10.6c1.73-3.61,3.43-7.23,5.15-10.86,1.85-3.86,3.67-7.74,5.54-11.59,3-6.22,6-12.4,9-18.63,1-2.09,1.81-4.26,2.69-6.4a.7.7,0,0,0,.14-1.17,1.08,1.08,0,0,0-1.27-.24c-3.22,1.22-6.43,2.43-9.67,3.59-5.24,1.9-10.5,3.76-15.77,5.64L179.52,95,164,100.56c-6.14,2.17-12.26,4.31-18.4,6.49-4.8,1.72-9.6,3.49-14.43,5.21-7,2.47-14,4.91-21,7.37-.79.27-1.63.5-2.4.78-6.55,2.36-13.11,4.76-19.67,7.11-3.87,1.38-7.75,2.66-11.58,4-7,2.51-14,5.07-21,7.58-4,1.45-8.07,2.79-12.11,4.2a7.07,7.07,0,0,0-1,.51C42.67,144.21,42.88,144.47,43.11,144.75Z"/><path class="cls-4" d="M43.11,144.75c-.23-.28-.44-.54-.74-.89a7.07,7.07,0,0,1,1-.51c4-1.41,8.08-2.75,12.11-4.2,7-2.51,14-5.07,21-7.58,3.83-1.39,7.71-2.67,11.58-4,6.56-2.35,13.12-4.75,19.67-7.11.77-.28,1.61-.51,2.4-.78,7-2.46,14-4.9,21-7.37,4.83-1.72,9.63-3.49,14.43-5.21,6.14-2.18,12.26-4.32,18.4-6.49L179.52,95l17.33-6.14c5.27-1.88,10.53-3.74,15.77-5.64,3.24-1.16,6.45-2.37,9.67-3.59a1.08,1.08,0,0,1,1.27.24.7.7,0,0,1-.14,1.17c-1.08,0-1.65.78-2.29,1.43a82.81,82.81,0,0,0-8,8.54c-9.44,9.49-19,18.88-28.15,28.67-4.32,4.62-9,8.94-13.39,13.47-2.87,2.91-5.61,6-8.38,8.91a2.59,2.59,0,0,0-.84,2c0,.47,0,.94,0,1.4-.42-.6-.87-1.19-1.36-1.89h-1.89q-13.28.12-26.54.24-23.46.27-46.93.54c-1.87,0-3.71,0-5.58-.08H78.4c-2.12,0-4.25,0-6.36,0-1.93,0-3.87.09-5.81.14a17.58,17.58,0,0,1-1.9.23c-6.69.07-13.4.12-20.09.17A9.27,9.27,0,0,1,43.11,144.75Z"/><path class="cls-5" d="M162.34,145.46c0-.46,0-.93,0-1.4a2.59,2.59,0,0,1,.84-2c2.77-2.95,5.51-6,8.38-8.91,4.42-4.53,9.07-8.85,13.39-13.47,9.13-9.79,18.71-19.18,28.15-28.67a82.81,82.81,0,0,1,8-8.54c.64-.65,1.21-1.47,2.29-1.43-.88,2.14-1.71,4.31-2.69,6.4-3,6.23-6,12.41-9,18.63-1.87,3.85-3.69,7.73-5.54,11.59-1.72,3.63-3.42,7.25-5.15,10.86l-5,10.6c-1.85,3.86-3.68,7.74-5.53,11.61s-3.76,7.89-5.66,11.85q-2.9,6.19-5.72,12.41a1.79,1.79,0,0,1-1.68,1.23l0,0c0-.49-.08-1-.61-1.16a10.17,10.17,0,0,1-.75-1.14q-4.73-9.6-9.43-19.2c-.2-.42-.3-.86-.46-1.3,0-.54,0-1.05-.59-1.3l0,.06c.06-.5,0-1-.59-1.17l0,.06c0-.52,0-1-.59-1.18l0,.05c0-.51,0-1-.58-1.17l0,0c0-.51,0-1-.59-1.17l.05.05c0-.5-.05-1-.59-1.16l0,0c0-.51-.06-1-.58-1.17Z"/><path class="cls-6" d="M67.11,187a36.45,36.45,0,0,1,5.52-.07,35.54,35.54,0,0,1,.16,4.88c0,1.49,0,3,0,4.48v9.51c0,1.5-.06,3,0,4.47a17.73,17.73,0,0,0,.26,4.84,14.65,14.65,0,0,0,1.61.28c.62.06,1.3,0,2,0H188.57c3.79,0,3.9.45,3.86-3.73,0-7.28,0-14.56,0-21.84,0-.91.05-1.83.06-2.8a31.46,31.46,0,0,1,5.57-.09,14.71,14.71,0,0,1,.17,1.71c0,8.4,0,16.79,0,25.19a7.08,7.08,0,0,1-2.41,5.73,6.13,6.13,0,0,1-3.79,1.59c-.94,0-1.86,0-2.81,0H75.91c-.94,0-1.85,0-2.8-.06A6.61,6.61,0,0,1,67,215.18a18.06,18.06,0,0,1-.07-2q0-12,0-24.08C67,188.43,67.07,187.71,67.11,187Z"/><path class="cls-6" d="M72.81,31.07V54.56a18.3,18.3,0,0,1-5.72.1c0-.78-.14-1.52-.14-2.24q0-9.8,0-19.6a14.06,14.06,0,0,1,.17-2.51A6.59,6.59,0,0,1,72.84,25a21.15,21.15,0,0,1,2.52-.09H189.8c.76,0,1.5,0,2.26.05a6.74,6.74,0,0,1,6.15,6.2c0,.27,0,.55,0,.84q0,10.77,0,21.55a7,7,0,0,1-.16,1.16h-5.47c-.05-.78-.15-1.49-.15-2.22,0-6,0-11.94,0-17.91,0-.65,0-1.3,0-2,0-1.6-.35-1.86-2-1.91-.56,0-1.12,0-1.66,0H76.45A8.31,8.31,0,0,0,72.81,31.07Z"/><path class="cls-3" d="M66.23,144.45c1.94,0,3.88-.11,5.81-.14,2.11,0,4.24,0,6.36,0A76,76,0,0,1,66.23,144.45Z"/><path class="cls-4" d="M164.54,149.91c.57.21.63.66.59,1.18C164.93,150.69,164.73,150.3,164.54,149.91Z"/><path class="cls-4" d="M165.08,151c.59.2.65.67.59,1.17C165.47,151.82,165.28,151.42,165.08,151Z"/><path class="cls-4" d="M164,148.79c.55.2.61.66.58,1.17C164.37,149.57,164.18,149.17,164,148.79Z"/><path class="cls-4" d="M163.42,147.66c.57.22.63.66.59,1.17C163.83,148.45,163.63,148.05,163.42,147.66Z"/><path class="cls-4" d="M162.88,146.55c.54.21.61.66.59,1.16C163.26,147.32,163.08,146.94,162.88,146.55Z"/><path class="cls-4" d="M162.33,145.42c.52.22.59.66.58,1.17C162.7,146.2,162.52,145.81,162.33,145.42Z"/><path class="cls-3" d="M176.88,175.08c.53.21.61.67.61,1.16C177.28,175.86,177.08,175.47,176.88,175.08Z"/><path class="cls-4" d="M165.65,152.14c.59.25.62.76.59,1.3C166.05,153,165.83,152.59,165.65,152.14Z"/><path class="cls-3" d="M79.58,144.27h0Z"/><path d="M273.77,207.75l4.76-.42a10.17,10.17,0,0,0,1.56,4.69,8.32,8.32,0,0,0,3.8,2.94,14.32,14.32,0,0,0,5.82,1.14,13.92,13.92,0,0,0,5.07-.86,7,7,0,0,0,3.27-2.35,5.5,5.5,0,0,0,1.08-3.26,5,5,0,0,0-1-3.12,7.82,7.82,0,0,0-3.42-2.23,63,63,0,0,0-6.77-1.86,33.47,33.47,0,0,1-7.3-2.37,10.05,10.05,0,0,1-4.05-3.53,8.68,8.68,0,0,1-1.33-4.73,9.63,9.63,0,0,1,1.63-5.39,10.17,10.17,0,0,1,4.76-3.79,18,18,0,0,1,7-1.29,18.9,18.9,0,0,1,7.43,1.36,10.64,10.64,0,0,1,4.95,4,11.61,11.61,0,0,1,1.87,6L298,193a7.76,7.76,0,0,0-2.63-5.44c-1.49-1.23-3.7-1.84-6.6-1.84-3.05,0-5.25.56-6.65,1.67a5,5,0,0,0-2.08,4,4.32,4.32,0,0,0,1.47,3.36c1,.89,3.49,1.79,7.57,2.72a50.93,50.93,0,0,1,8.39,2.41,11.77,11.77,0,0,1,4.91,3.88,9.55,9.55,0,0,1,1.56,5.4,10.35,10.35,0,0,1-1.72,5.72,11.58,11.58,0,0,1-5,4.17,17.18,17.18,0,0,1-7.31,1.49,21.74,21.74,0,0,1-8.61-1.5,12,12,0,0,1-5.46-4.52A12.68,12.68,0,0,1,273.77,207.75Z"/><path d="M328.16,216.55a17.25,17.25,0,0,1-5,3.12,14.32,14.32,0,0,1-5.12.91q-4.55,0-7-2.22a7.33,7.33,0,0,1-2.45-5.66,7.65,7.65,0,0,1,3.35-6.38,11.28,11.28,0,0,1,3.35-1.53,34.05,34.05,0,0,1,4.14-.69,43,43,0,0,0,8.3-1.61c0-.64,0-1,0-1.22,0-1.9-.42-3.24-1.31-4a7.87,7.87,0,0,0-5.31-1.58,8.19,8.19,0,0,0-4.85,1.16,7.08,7.08,0,0,0-2.32,4.08l-4.54-.62a11.29,11.29,0,0,1,2-4.74,9,9,0,0,1,4.13-2.76,18.23,18.23,0,0,1,6.23-1,16.46,16.46,0,0,1,5.71.83,7.53,7.53,0,0,1,3.25,2.09,7.93,7.93,0,0,1,1.44,3.17,25.58,25.58,0,0,1,.24,4.3v6.22a69.47,69.47,0,0,0,.28,8.23A10.31,10.31,0,0,0,334,220h-4.86A9.48,9.48,0,0,1,328.16,216.55Zm-.39-10.41a34.77,34.77,0,0,1-7.62,1.77,17,17,0,0,0-4.06.93,4.08,4.08,0,0,0-1.07,6.84,6.07,6.07,0,0,0,4.13,1.24,9.49,9.49,0,0,0,4.78-1.18,7.11,7.11,0,0,0,3.08-3.23,11.22,11.22,0,0,0,.76-4.66Z"/><path d="M357.61,216.55a17.14,17.14,0,0,1-5,3.12,14.61,14.61,0,0,1-5.15.91c-3,0-5.33-.74-7-2.22a7.35,7.35,0,0,1-2.43-5.66,7.73,7.73,0,0,1,3.32-6.38,12,12,0,0,1,3.36-1.53,34.77,34.77,0,0,1,4.14-.69,42.33,42.33,0,0,0,8.3-1.61c0-.64,0-1,0-1.22,0-1.9-.45-3.24-1.34-4a7.85,7.85,0,0,0-5.31-1.58,8.14,8.14,0,0,0-4.84,1.16,7.08,7.08,0,0,0-2.32,4.08l-4.55-.62a11.06,11.06,0,0,1,2.06-4.74,8.79,8.79,0,0,1,4.1-2.76,18.25,18.25,0,0,1,6.24-1,16.5,16.5,0,0,1,5.71.83,6.55,6.55,0,0,1,4.68,5.26,27.44,27.44,0,0,1,.22,4.3v6.22a62.14,62.14,0,0,0,.32,8.23,10.26,10.26,0,0,0,1.17,3.3h-4.86A9.69,9.69,0,0,1,357.61,216.55Zm-.39-10.41a34.36,34.36,0,0,1-7.61,1.77,16.92,16.92,0,0,0-4.05.93,3.91,3.91,0,0,0-2.48,3.73,3.94,3.94,0,0,0,1.41,3.11,6,6,0,0,0,4.12,1.24,9.52,9.52,0,0,0,4.78-1.18,7.24,7.24,0,0,0,3.09-3.23,11.26,11.26,0,0,0,.74-4.66Z"/><path d="M379.31,215.78l.68,4.13a17.8,17.8,0,0,1-3.52.41,7.9,7.9,0,0,1-3.94-.81,4.55,4.55,0,0,1-2-2.11,17.39,17.39,0,0,1-.56-5.51V196.06h-3.41v-3.62H370v-6.83l4.65-2.79v9.62h4.66v3.62h-4.66v16.09a8.55,8.55,0,0,0,.22,2.57,2.07,2.07,0,0,0,.8.91,3.23,3.23,0,0,0,1.6.33A13.72,13.72,0,0,0,379.31,215.78Z"/><path d="M383.86,220V182h4.66v13.63a10.4,10.4,0,0,1,8.22-3.78,11,11,0,0,1,5.31,1.21,7,7,0,0,1,3.22,3.33,15.3,15.3,0,0,1,1,6.16V220h-4.65V202.51c0-2.34-.49-4-1.48-5.09a5.73,5.73,0,0,0-4.31-1.6,7.55,7.55,0,0,0-3.89,1.09,6.17,6.17,0,0,0-2.61,2.91,13.59,13.59,0,0,0-.77,5.08v15Z"/><path d="M428.73,220V182h16.8a22.31,22.31,0,0,1,7.71,1,8.46,8.46,0,0,1,4.22,3.62,10.77,10.77,0,0,1,1.57,5.72,9.51,9.51,0,0,1-2.62,6.82c-1.73,1.84-4.42,3-8.06,3.53a12.28,12.28,0,0,1,3,1.88,25.19,25.19,0,0,1,4.17,5.06l6.6,10.33h-6.3l-5-7.91c-1.48-2.27-2.68-4-3.63-5.23a11.47,11.47,0,0,0-2.56-2.53,7.06,7.06,0,0,0-2.3-1,14.78,14.78,0,0,0-2.79-.18h-5.8V220Zm5-21.22h10.79a16.42,16.42,0,0,0,5.38-.71,5.87,5.87,0,0,0,2.94-2.28,6.31,6.31,0,0,0,1-3.41,5.71,5.71,0,0,0-1.93-4.43c-1.34-1.16-3.38-1.74-6.2-1.74h-12Z"/><path d="M484.23,216.55a17.08,17.08,0,0,1-5,3.12,14.32,14.32,0,0,1-5.12.91q-4.53,0-7-2.22a7.32,7.32,0,0,1-2.43-5.66,7.51,7.51,0,0,1,.92-3.69,7.72,7.72,0,0,1,2.4-2.69,11.64,11.64,0,0,1,3.35-1.53,35.14,35.14,0,0,1,4.14-.69,42.49,42.49,0,0,0,8.3-1.61c0-.64,0-1,0-1.22,0-1.9-.45-3.24-1.33-4a7.8,7.8,0,0,0-5.3-1.58,8.14,8.14,0,0,0-4.84,1.16,6.91,6.91,0,0,0-2.31,4.08l-4.55-.62a11.54,11.54,0,0,1,2-4.74,9.13,9.13,0,0,1,4.14-2.76,18.19,18.19,0,0,1,6.23-1,16.6,16.6,0,0,1,5.72.83,7.58,7.58,0,0,1,3.23,2.09,7.07,7.07,0,0,1,1.43,3.17,24.24,24.24,0,0,1,.25,4.3v6.22a70.93,70.93,0,0,0,.29,8.23A11.34,11.34,0,0,0,490,220h-4.85A9.91,9.91,0,0,1,484.23,216.55Zm-.39-10.41a34.39,34.39,0,0,1-7.6,1.77,17,17,0,0,0-4.06.93,3.94,3.94,0,0,0-2.49,3.73,3.92,3.92,0,0,0,1.43,3.11,6,6,0,0,0,4.13,1.24,9.6,9.6,0,0,0,4.78-1.18,7.25,7.25,0,0,0,3.07-3.23,11.43,11.43,0,0,0,.74-4.66Z"/><path d="M495.77,220V182h4.66v13.63a10.38,10.38,0,0,1,8.23-3.78A11,11,0,0,1,514,193a7,7,0,0,1,3.22,3.33,15.25,15.25,0,0,1,1,6.16V220h-4.66V202.51c0-2.34-.5-4-1.51-5.09a5.66,5.66,0,0,0-4.3-1.6,7.58,7.58,0,0,0-3.89,1.09,5.84,5.84,0,0,0-2.57,2.91,13.15,13.15,0,0,0-.79,5.08v15Z"/><path d="M544.05,211.09l4.8.6a11.77,11.77,0,0,1-4.22,6.55,14.24,14.24,0,0,1-17.42-1.38c-2.34-2.48-3.52-6-3.52-10.44,0-4.63,1.18-8.21,3.56-10.77a12.1,12.1,0,0,1,9.26-3.84,11.79,11.79,0,0,1,9,3.76c2.33,2.51,3.47,6,3.47,10.57,0,.27,0,.69,0,1.25H528.5a10.49,10.49,0,0,0,2.55,6.94,7.57,7.57,0,0,0,5.76,2.41,7.18,7.18,0,0,0,4.36-1.35A9,9,0,0,0,544.05,211.09Zm-15.3-7.54H544.1a9.32,9.32,0,0,0-1.78-5.21,7.09,7.09,0,0,0-5.75-2.69,7.4,7.4,0,0,0-5.4,2.15A8.43,8.43,0,0,0,528.75,203.55Z"/><path d="M554.7,220V192.44h4.17v3.91a9.91,9.91,0,0,1,8.77-4.54,11.34,11.34,0,0,1,4.55.9,7.11,7.11,0,0,1,3.12,2.34,9,9,0,0,1,1.45,3.44A26,26,0,0,1,577,203V220h-4.66V203.22a12.47,12.47,0,0,0-.55-4.28,4.52,4.52,0,0,0-1.92-2.24,6,6,0,0,0-3.24-.85,7.56,7.56,0,0,0-5.15,1.9c-1.43,1.26-2.15,3.64-2.15,7.18v15Z"/><path d="M583.3,222.23l4.54.68a4.28,4.28,0,0,0,1.57,3.06,7.76,7.76,0,0,0,4.73,1.29,8.31,8.31,0,0,0,5-1.29,6.3,6.3,0,0,0,2.39-3.63,30.42,30.42,0,0,0,.34-6,9.6,9.6,0,0,1-7.61,3.6,10.35,10.35,0,0,1-8.77-4.09,15.72,15.72,0,0,1-3.1-9.83,18.51,18.51,0,0,1,1.4-7.27,11.42,11.42,0,0,1,4.14-5.13,11.1,11.1,0,0,1,6.36-1.82,9.84,9.84,0,0,1,8,3.94v-3.31h4.29v23.78c0,4.29-.44,7.32-1.31,9.11a9.54,9.54,0,0,1-4.15,4.24,14.33,14.33,0,0,1-7,1.55,13.22,13.22,0,0,1-7.95-2.21C584.21,227.43,583.23,225.2,583.3,222.23Zm3.87-16.53c0,3.61.69,6.25,2.14,7.9a7,7,0,0,0,10.75,0c1.46-1.65,2.17-4.24,2.17-7.76s-.73-5.92-2.23-7.62a6.9,6.9,0,0,0-5.38-2.57,6.76,6.76,0,0,0-5.3,2.53C587.89,199.89,587.17,202.38,587.17,205.7Z"/><path d="M632.42,211.09l4.83.6a11.89,11.89,0,0,1-4.23,6.55,14.24,14.24,0,0,1-17.42-1.38c-2.36-2.48-3.55-6-3.55-10.44,0-4.63,1.22-8.21,3.59-10.77a12.06,12.06,0,0,1,9.26-3.84,11.78,11.78,0,0,1,9,3.76c2.33,2.51,3.48,6,3.48,10.57,0,.27,0,.69,0,1.25H616.89c.18,3,1,5.33,2.55,6.94a7.58,7.58,0,0,0,5.75,2.41,7.21,7.21,0,0,0,4.37-1.35A8.82,8.82,0,0,0,632.42,211.09Zm-15.28-7.54h15.34a9.32,9.32,0,0,0-1.76-5.21,7.12,7.12,0,0,0-5.77-2.69,7.37,7.37,0,0,0-5.4,2.15A8.56,8.56,0,0,0,617.14,203.55Z"/><path d="M656.22,207.59l7.46-.73a9,9,0,0,0,2.72,5.52,8.23,8.23,0,0,0,5.55,1.77,8.52,8.52,0,0,0,5.58-1.57,4.67,4.67,0,0,0,1.88-3.67,3.55,3.55,0,0,0-.79-2.29,6.4,6.4,0,0,0-2.76-1.65c-.9-.3-3-.86-6.14-1.65-4.09-1-7-2.27-8.63-3.76a9.92,9.92,0,0,1-3.49-7.65,9.79,9.79,0,0,1,1.64-5.42,10.25,10.25,0,0,1,4.74-3.85,18.89,18.89,0,0,1,7.46-1.32q7.13,0,10.73,3.12a10.93,10.93,0,0,1,3.79,8.38l-7.63.34A6.45,6.45,0,0,0,676.2,189a7.64,7.64,0,0,0-4.84-1.29,8.66,8.66,0,0,0-5.22,1.38,2.73,2.73,0,0,0-1.22,2.36,2.88,2.88,0,0,0,1.13,2.3q1.46,1.22,7,2.54a36.49,36.49,0,0,1,8.26,2.74,10.66,10.66,0,0,1,4.2,3.86,12,12,0,0,1-.31,12.17,10.74,10.74,0,0,1-5.11,4.23,21.38,21.38,0,0,1-8.25,1.39q-7.2,0-11-3.34C658.25,215.08,656.73,211.84,656.22,207.59Z"/><path d="M711.52,220v-4.11a10.59,10.59,0,0,1-3.92,3.46,11.08,11.08,0,0,1-5.17,1.28,10,10,0,0,1-5-1.22,7.12,7.12,0,0,1-3.19-3.41,15.54,15.54,0,0,1-1-6.1V192.44h7.27v12.64a36.54,36.54,0,0,0,.4,7.11,3.92,3.92,0,0,0,1.47,2.08,4.48,4.48,0,0,0,2.69.76,5.62,5.62,0,0,0,3.33-1,5.16,5.16,0,0,0,2-2.53c.36-1,.53-3.49.53-7.42V192.44h7.28V220Z"/><path d="M749.76,200.56l-7.17,1.3a5.18,5.18,0,0,0-1.63-3.23,5,5,0,0,0-3.33-1.09,5.42,5.42,0,0,0-4.33,1.88c-1.08,1.24-1.61,3.35-1.61,6.28,0,3.27.53,5.57,1.63,6.92a5.38,5.38,0,0,0,4.41,2,4.89,4.89,0,0,0,3.39-1.19A7,7,0,0,0,743,209.4l7.13,1.23a12.61,12.61,0,0,1-4.25,7.43,13.22,13.22,0,0,1-8.48,2.52,12.53,12.53,0,0,1-9.58-3.81c-2.39-2.54-3.6-6.06-3.6-10.56s1.21-8.08,3.6-10.6a12.77,12.77,0,0,1,9.72-3.8,13.15,13.15,0,0,1,8,2.17A11.91,11.91,0,0,1,749.76,200.56Z"/><path d="M779.23,200.56l-7.17,1.3a5.11,5.11,0,0,0-1.66-3.23,4.85,4.85,0,0,0-3.3-1.09,5.41,5.41,0,0,0-4.34,1.88c-1.07,1.24-1.62,3.35-1.62,6.28,0,3.27.55,5.57,1.64,6.92a5.42,5.42,0,0,0,4.41,2,4.91,4.91,0,0,0,3.4-1.19,7.07,7.07,0,0,0,1.86-4.06l7.14,1.23a12.73,12.73,0,0,1-4.27,7.43,13.2,13.2,0,0,1-8.46,2.52,12.61,12.61,0,0,1-9.62-3.81c-2.37-2.54-3.57-6.06-3.57-10.56s1.2-8.08,3.59-10.6a12.8,12.8,0,0,1,9.73-3.8,13.26,13.26,0,0,1,8,2.17A12.1,12.1,0,0,1,779.23,200.56Z"/><path d="M800.64,211.21l7.24,1.21a11.85,11.85,0,0,1-4.41,6.07,13,13,0,0,1-7.54,2.09c-4.77,0-8.31-1.57-10.59-4.69a15.76,15.76,0,0,1-2.72-9.49c0-4.56,1.17-8.13,3.55-10.71a11.81,11.81,0,0,1,9-3.88,12.23,12.23,0,0,1,9.68,4.05c2.38,2.71,3.5,6.86,3.39,12.44H790.06a7.36,7.36,0,0,0,1.76,5,5.52,5.52,0,0,0,4.19,1.8,4.5,4.5,0,0,0,2.88-.93A5.61,5.61,0,0,0,800.64,211.21Zm.43-7.38a7.09,7.09,0,0,0-1.65-4.8,5,5,0,0,0-3.77-1.65,5,5,0,0,0-3.92,1.73,6.64,6.64,0,0,0-1.54,4.72Z"/><path d="M811.63,212.1l7.29-1.11a5.41,5.41,0,0,0,1.9,3.23,6.4,6.4,0,0,0,4,1.1,7.11,7.11,0,0,0,4.24-1,2.3,2.3,0,0,0,1-1.94,2,2,0,0,0-.5-1.38,6.18,6.18,0,0,0-2.44-1q-8.8-1.94-11.17-3.55a7.11,7.11,0,0,1-3.24-6.19,7.64,7.64,0,0,1,2.81-6c1.89-1.62,4.8-2.44,8.74-2.44,3.77,0,6.56.62,8.39,1.84a9.44,9.44,0,0,1,3.77,5.44l-6.86,1.28a4.25,4.25,0,0,0-1.66-2.47,6.09,6.09,0,0,0-3.5-.86,7.67,7.67,0,0,0-4.11.82,1.69,1.69,0,0,0-.83,1.47,1.63,1.63,0,0,0,.73,1.32c.65.49,2.9,1.17,6.78,2s6.58,2,8.11,3.25a6.75,6.75,0,0,1,2.28,5.41,8.34,8.34,0,0,1-3.16,6.51c-2.09,1.81-5.21,2.72-9.33,2.72-3.76,0-6.7-.77-8.89-2.29A10.47,10.47,0,0,1,811.63,212.1Z"/><path d="M841.1,212.1l7.29-1.11a5.49,5.49,0,0,0,1.89,3.23,6.45,6.45,0,0,0,4,1.1,7.09,7.09,0,0,0,4.24-1,2.28,2.28,0,0,0,1-1.94A2,2,0,0,0,859,211a5.92,5.92,0,0,0-2.43-1q-8.81-1.94-11.15-3.55a7.11,7.11,0,0,1-3.27-6.19,7.66,7.66,0,0,1,2.83-6c1.87-1.62,4.79-2.44,8.74-2.44,3.76,0,6.55.62,8.38,1.84a9.51,9.51,0,0,1,3.79,5.44L859,200.37a4.18,4.18,0,0,0-1.67-2.47,6.07,6.07,0,0,0-3.5-.86,7.79,7.79,0,0,0-4.12.82,1.68,1.68,0,0,0-.82,1.47,1.62,1.62,0,0,0,.72,1.32q1,.73,6.79,2c3.88.89,6.58,2,8.12,3.25a6.77,6.77,0,0,1,2.26,5.41,8.3,8.3,0,0,1-3.15,6.51c-2.09,1.81-5.22,2.72-9.34,2.72-3.72,0-6.69-.77-8.88-2.29A10.46,10.46,0,0,1,841.1,212.1Z"/><path d="M896.82,220V186.44h-12.5V182h30.07v4.48H901.83V220Z"/><path d="M931,216.55a17,17,0,0,1-5,3.12,14.47,14.47,0,0,1-5.14.91c-3,0-5.34-.74-7-2.22a7.84,7.84,0,0,1-1.5-9.35,7.67,7.67,0,0,1,2.38-2.69,11.76,11.76,0,0,1,3.37-1.53,34.9,34.9,0,0,1,4.13-.69,42.76,42.76,0,0,0,8.32-1.61c0-.64,0-1,0-1.22,0-1.9-.45-3.24-1.33-4a7.86,7.86,0,0,0-5.3-1.58,8.23,8.23,0,0,0-4.85,1.16,7,7,0,0,0-2.31,4.08l-4.56-.62a11.18,11.18,0,0,1,2.05-4.74,8.89,8.89,0,0,1,4.13-2.76,18.11,18.11,0,0,1,6.21-1,16.62,16.62,0,0,1,5.73.83,6.55,6.55,0,0,1,4.68,5.26,26.73,26.73,0,0,1,.24,4.3v6.22a71.87,71.87,0,0,0,.28,8.23,11.06,11.06,0,0,0,1.18,3.3h-4.87A10.37,10.37,0,0,1,931,216.55Zm-.37-10.41a34.65,34.65,0,0,1-7.61,1.77,17.28,17.28,0,0,0-4.07.93,4,4,0,0,0-1.83,1.51,4,4,0,0,0-.67,2.22,4,4,0,0,0,1.43,3.11,6,6,0,0,0,4.14,1.24,9.51,9.51,0,0,0,4.77-1.18,7.09,7.09,0,0,0,3.07-3.23,11,11,0,0,0,.77-4.66Z"/><path d="M942.56,220V182h4.64v21.67l11-11.19h6l-10.51,10.2L965.31,220h-5.75l-9.08-14.07L947.2,209V220Z"/></g></g></svg>